<svg xmlns="http://www.w3.org/2000/svg" viewBox="0 0 400 120">
  <defs>
    <linearGradient id="pinGradient" x1="0%" y1="0%" x2="100%" y2="100%">
      <stop offset="0%" style="stop-color:#0891b2;stop-opacity:1" />
      <stop offset="100%" style="stop-color:#0e7490;stop-opacity:1" />
    </linearGradient>
  </defs>
  
  <!-- Pin de ubicación con casa -->
  <g transform="translate(10, 10)">
    <!-- Pin exterior -->
    <path d="M30 10 A20 20 0 0 0 10 30 A20 20 0 0 0 30 50 A20 20 0 0 0 50 30 A20 20 0 0 0 30 10 Z" fill="url(#pinGradient)"/>
    <!-- Punta del pin -->
    <path d="M22 45 L30 60 L38 45 Z" fill="url(#pinGradient)"/>
    
    <!-- Círculo blanco interior -->
    <circle cx="30" cy="30" r="15" fill="white"/>
    
    <!-- Casa interior -->
    <g transform="translate(20, 20)">
      <!-- Estructura de la casa -->
      <path d="M5 15 L10 10 L15 15 Z" fill="#666" stroke="#0891b2" stroke-width="1"/>
      <rect x="6" y="15" width="8" height="6" fill="none" stroke="#666" stroke-width="1"/>
      <!-- Ventanas -->
      <rect x="7" y="16" width="2" height="2" fill="#0891b2"/>
      <rect x="11" y="16" width="2" height="2" fill="#0891b2"/>
      <!-- Puerta -->
      <rect x="9" y="18" width="2" height="3" fill="#0891b2"/>
    </g>
  </g>
  
  <!-- Texto Habi.gt -->
  <g transform="translate(80, 30)">
    <text x="0" y="40" font-family="system-ui, -apple-system, sans-serif" font-size="36" font-weight="400" fill="#666" letter-spacing="-1px">Habi.gt</text>
  </g>
</svg>